<svg width="27" height="18" viewBox="0 0 27 18" fill="none" xmlns="http://www.w3.org/2000/svg">
<path d="M13.5785 17.8226C12.5076 17.8226 11.6392 16.9393 11.6392 15.8501V1.97258C11.6392 0.883369 12.5076 0 13.5785 0C14.6493 0 15.5178 0.883369 15.5178 1.97258V15.8489C15.5178 16.9393 14.6493 17.8226 13.5785 17.8226Z" fill="#285FC3"/>
<path d="M7.75877 17.8223C6.68793 17.8223 5.81946 16.9389 5.81946 15.8497V7.89116C5.81946 6.80195 6.68793 5.91858 7.75877 5.91858C8.82962 5.91858 9.69809 6.80195 9.69809 7.89116V15.8485C9.69809 16.9389 8.82962 17.8223 7.75877 17.8223Z" fill="#642D96"/>
<path d="M19.3975 17.8226C18.9222 17.8226 18.448 17.6462 18.0757 17.2933C17.2673 16.5276 17.3101 15.182 18.0919 14.3868L20.5169 11.9202C21.2743 11.1497 21.2743 9.90055 20.5169 9.13011L18.0849 6.65644C17.3691 5.92833 17.2523 4.74502 17.8976 3.94987C18.6377 3.03827 19.9676 2.99004 20.769 3.80636L26.0029 9.13011C26.7604 9.90055 26.7604 11.1497 26.0029 11.9202L20.769 17.2439C20.3897 17.6297 19.8936 17.8226 19.3975 17.8226Z" fill="#1E9B50"/>
<path d="M1.93932 17.8226C0.868472 17.8226 0 16.9393 0 15.8489V13.8093C0 12.72 0.868472 11.8367 1.93932 11.8367C3.01016 11.8367 3.87863 12.72 3.87863 13.8093V15.8489C3.87863 16.9393 3.01016 17.8226 1.93932 17.8226Z" fill="#D21E46"/>
</svg>
